<svg width="108" height="108" viewBox="0 0 108 108" fill="none" xmlns="http://www.w3.org/2000/svg">
<g id="Frame" clip-path="url(#clip0_527_16807)">
<g id="Group">
<g id="Vector" filter="url(#filter0_d_527_16807)">
<path d="M95.4217 46.136C99.3935 68.5218 84.4787 89.9032 62.1023 93.8766C39.7094 97.853 18.3504 82.9128 14.3786 60.527C10.4068 38.1412 25.3214 16.7599 47.7143 12.7835C70.0909 8.81004 91.4499 23.7502 95.4217 46.136Z" fill="white"/>
</g>
<path id="Vector_2" d="M60.4738 84.6942C43.1862 87.764 26.6263 76.1913 23.5579 58.8972C20.4895 41.6032 32.0567 25.0359 49.3442 21.9661C66.6224 18.898 83.1756 30.4719 86.244 47.7659C89.3124 65.06 77.7519 81.6261 60.4738 84.6942Z" fill="white"/>
<path id="Vector_3" d="M55.5261 56.8584C53.5813 57.2037 51.7183 55.9018 51.3731 53.9562C51.0279 52.0105 52.3292 50.1468 54.2741 49.8014C56.2179 49.4563 58.0801 50.7583 58.4253 52.7039C58.7706 54.6495 57.47 56.5132 55.5261 56.8584Z" fill="white"/>
<path id="Vector_4" d="M47.4817 11.4752C24.4131 15.5715 8.97581 37.68 13.0706 60.7589C17.1654 83.8377 39.2652 99.2806 62.3339 95.1843C85.3948 91.0893 100.824 68.9822 96.7296 45.9033C92.6348 22.8244 70.5427 7.38016 47.4817 11.4752ZM61.8697 92.5683C40.2424 96.4087 19.5241 81.9307 15.6853 60.2945C11.8465 38.6584 26.3186 17.9315 47.9459 14.0911C69.5642 10.2523 90.2761 24.7315 94.1149 46.3676C97.9537 68.0037 83.488 88.7295 61.8697 92.5683Z" fill="black"/>
<path id="Vector_5" d="M49.1106 20.6578C31.103 23.8554 19.0526 41.1135 22.249 59.1291C25.4454 77.1446 42.6967 89.1995 60.7043 86.0018C78.7042 82.8055 90.7472 65.5488 87.5508 47.5333C84.3543 29.5177 67.1106 17.4615 49.1106 20.6578ZM60.2402 83.3859C43.6741 86.3275 27.8044 75.2377 24.8639 58.6647C21.9234 42.0918 33.0087 26.2154 49.5748 23.2738C66.132 20.3336 81.9954 31.4246 84.9359 47.9976C87.8763 64.5706 76.7973 80.4458 60.2402 83.3859Z" fill="black"/>
<path id="Vector_6" d="M51.0359 31.553C51.7585 31.4247 52.2395 30.7353 52.1113 30.0129L51.9316 29C51.8034 28.2777 51.1147 27.7958 50.3921 27.9241C49.6695 28.0525 49.1885 28.7419 49.3167 29.4643L49.4964 30.4772C49.6245 31.1995 50.3133 31.6814 51.0359 31.553ZM58.7636 75.1076C58.041 75.2359 57.5601 75.9254 57.6882 76.6477L57.8679 77.6607C57.9961 78.3829 58.6847 78.8648 59.4075 78.7365C60.1301 78.6082 60.611 77.9187 60.4828 77.1964L60.3031 76.1834C60.175 75.4612 59.4862 74.9793 58.7636 75.1076ZM67.8202 32.5055L67.2321 33.3484C66.8122 33.9506 66.9591 34.7783 67.5604 35.1986C68.1619 35.6179 68.989 35.4712 69.4091 34.8696L69.9971 34.0268C70.417 33.4245 70.2702 32.5968 69.6688 32.1766C69.0677 31.7575 68.2402 31.9038 67.8202 32.5055ZM40.3905 71.791L39.8026 72.6339C39.3826 73.2361 39.5295 74.0638 40.1308 74.4841C40.7324 74.9034 41.5594 74.7567 41.9795 74.1551L42.5675 73.3123C42.9875 72.71 42.8406 71.8823 42.2393 71.4621C41.638 71.0432 40.8105 71.1895 40.3905 71.791ZM78.2082 50.5406L79.2194 50.361C79.942 50.2327 80.4229 49.5433 80.2947 48.8209C80.1666 48.0986 79.4778 47.6167 78.7552 47.7451L77.7441 47.9246C77.0215 48.0529 76.5405 48.7424 76.6687 49.4648C76.7968 50.187 77.4856 50.6689 78.2082 50.5406ZM31.5913 56.1201L30.5801 56.2996C29.8575 56.4279 29.3766 57.1174 29.5048 57.8398C29.6329 58.562 30.3217 59.0439 31.0443 58.9156L32.0555 58.736C32.7781 58.6077 33.259 57.9183 33.1308 57.1959C33.0027 56.4737 32.3139 55.9918 31.5913 56.1201ZM74.8734 65.6678C74.2721 65.2476 73.4448 65.3952 73.0246 65.9954C72.6045 66.597 72.7514 67.4247 73.3528 67.8456L74.1949 68.4345C74.7961 68.8546 75.623 68.7079 76.0438 68.1069C76.4638 67.5053 76.317 66.6776 75.7155 66.2567L74.8734 65.6678ZM35.6046 38.2261C35.0033 37.8059 34.176 37.9535 33.7557 38.5537C33.3357 39.1553 33.4825 39.9831 34.084 40.4039L34.9259 40.9929C35.527 41.4129 36.354 41.2663 36.7748 40.6652C37.1948 40.0637 37.048 39.2359 36.4465 38.815L35.6046 38.2261ZM55.385 48.4639L53.355 37.0227C53.2269 36.3005 52.5381 35.8186 51.8155 35.9469C51.0929 36.0752 50.6119 36.7646 50.7401 37.487L52.7702 48.9289C50.8445 49.864 49.6737 51.9785 50.0658 54.1887C50.2179 55.0459 50.6019 55.7968 51.1186 56.426L47.8568 61.0969C47.4368 61.6984 47.5836 62.5262 48.185 62.9464C48.7863 63.3666 49.6137 63.2197 50.0338 62.6181L53.2952 57.9475C54.064 58.2167 54.9015 58.3188 55.759 58.1665C58.4236 57.6934 60.2067 55.1389 59.7335 52.472C59.3414 50.2609 57.5146 48.6783 55.385 48.4639ZM55.2951 55.5507C54.0707 55.7681 52.898 54.9486 52.6807 53.7244C52.4635 52.5001 53.2827 51.3269 54.5071 51.1095C55.7302 50.8923 56.9016 51.712 57.1188 52.9363C57.336 54.1605 56.5182 55.3335 55.2951 55.5507Z" fill="black"/>
</g>
</g>
<defs>
<filter id="filter0_d_527_16807" x="13.7383" y="12.1436" width="84.257" height="86.2396" filterUnits="userSpaceOnUse" color-interpolation-filters="sRGB">
<feFlood flood-opacity="0" result="BackgroundImageFix"/>
<feColorMatrix in="SourceAlpha" type="matrix" values="0 0 0 0 0 0 0 0 0 0 0 0 0 0 0 0 0 0 127 0" result="hardAlpha"/>
<feOffset dx="1.93278" dy="3.86555"/>
<feComposite in2="hardAlpha" operator="out"/>
<feColorMatrix type="matrix" values="0 0 0 0 0 0 0 0 0 0 0 0 0 0 0 0 0 0 1 0"/>
<feBlend mode="normal" in2="BackgroundImageFix" result="effect1_dropShadow_527_16807"/>
<feBlend mode="normal" in="SourceGraphic" in2="effect1_dropShadow_527_16807" result="shape"/>
</filter>
<clipPath id="clip0_527_16807">
<rect width="92.3107" height="92.3466" fill="white" transform="matrix(0.984597 -0.174837 0.174697 0.984622 0.978516 16.5352)"/>
</clipPath>
</defs>
</svg>
